<svg width="84" height="20" viewBox="0 0 84 20" fill="none" xmlns="http://www.w3.org/2000/svg">
<path d="M0.519531 6.69202H5.03187L7.82636 13.8452L10.5954 6.69202H15.1078L9.95477 18.9986H5.67298L0.519531 6.69202ZM20.3952 19.3833C18.8565 19.3833 17.6092 19.0156 16.6518 18.2807C15.7118 17.5288 15.2418 16.486 15.2418 15.1529C15.2418 13.7683 15.6948 12.7086 16.6004 11.9737C17.5234 11.2218 18.8396 10.8456 20.5489 10.8456C21.2155 10.8456 21.882 10.9224 22.5486 11.0761C23.2152 11.2128 23.7879 11.4009 24.2664 11.6404V11.3839C24.2664 10.0678 23.1897 9.40969 21.0359 9.40969C19.5321 9.40969 18.156 9.70054 16.9082 10.2813V7.17944C17.455 6.923 18.173 6.71794 19.0621 6.5638C19.9747 6.39076 20.9017 6.30489 21.8307 6.30736C24.1212 6.30736 25.8475 6.76887 27.01 7.69188C28.189 8.59792 28.7787 9.8712 28.7787 11.5122V18.9986H24.5483V17.9474C24.0868 18.3919 23.506 18.7422 22.8051 18.9986C22.1045 19.2551 21.3008 19.3833 20.3952 19.3833ZM21.7283 16.6142C22.2582 16.6142 22.7537 16.5115 23.2152 16.3064C23.6767 16.0844 24.0274 15.8024 24.2664 15.4607V14.3835C23.5315 13.8881 22.6938 13.6401 21.7538 13.6401C21.1556 13.6401 20.6941 13.7683 20.3693 14.0248C20.0445 14.2812 19.8823 14.6569 19.8823 15.1529C19.8823 15.6144 20.036 15.9731 20.3438 16.2296C20.6686 16.486 21.1301 16.6142 21.7283 16.6142ZM30.9523 6.69202H35.1313V8.02517C35.6286 7.48946 36.2308 7.06183 36.9005 6.76887C37.5675 6.46125 38.2939 6.30371 39.0284 6.30736C39.9515 6.30736 40.6864 6.44407 41.2332 6.71793C41.7975 6.99135 42.2505 7.40149 42.5923 7.94833C43.1052 7.43544 43.7289 7.0338 44.4638 6.7434C45.1987 6.453 45.9426 6.30736 46.6945 6.30736C48.318 6.30736 49.472 6.72642 50.1556 7.56366C50.8391 8.38437 51.1813 9.57232 51.1813 11.1275V18.9986H46.8741V11.7686C46.8741 11.0851 46.7459 10.5892 46.4894 10.2813C46.233 9.97396 45.8054 9.81982 45.2072 9.81982C44.4383 9.81982 43.8142 10.0937 43.3357 10.6405C43.3527 10.9309 43.3616 11.3755 43.3616 11.9737V18.9986H39.0543V11.589C39.0543 10.9568 38.9431 10.5038 38.7206 10.2304C38.4986 9.95653 38.1054 9.81982 37.5416 9.81982C36.67 9.81982 35.9176 10.3072 35.2854 11.2812V18.9986H30.9523V6.69202ZM62.0779 19.3833C60.3177 19.3833 58.8648 18.8449 57.7197 17.7678V18.9986H53.3611V0.0517578H57.8734V7.69188C58.3689 7.26478 58.9845 6.93149 59.7195 6.69202C60.4789 6.43434 61.2759 6.30436 62.0779 6.30736C63.3771 6.30736 64.5137 6.58122 65.4881 7.12806C66.4794 7.6749 67.2488 8.45272 67.7956 9.46107C68.3425 10.4524 68.6159 11.589 68.6159 12.8708C68.6159 14.17 68.3425 15.315 67.7956 16.3064C67.2488 17.2808 66.4794 18.0416 65.4881 18.5885C64.4967 19.1183 63.3601 19.3833 62.0779 19.3833ZM60.8989 15.8963C61.8219 15.8963 62.5654 15.6313 63.1292 15.1015C63.6934 14.5546 63.9753 13.8112 63.9753 12.8708C63.9753 11.9308 63.6934 11.1874 63.1292 10.6405C62.5654 10.0937 61.8219 9.81982 60.8989 9.81982C60.2149 9.81982 59.5997 9.99942 59.0529 10.3586C58.5167 10.6877 58.1025 11.1827 57.8734 11.7686V13.9479C58.1064 14.5382 58.519 15.0404 59.0529 15.3834C59.5997 15.7256 60.2149 15.8963 60.8989 15.8963ZM77.6419 19.3833C75.2316 19.3833 73.3346 18.819 71.9501 17.6909C70.5826 16.5628 69.899 14.9648 69.899 12.8967C69.899 10.8626 70.5057 9.256 71.7191 8.07654C72.95 6.89709 74.7192 6.30736 77.0262 6.30736C78.4966 6.30736 79.7528 6.58971 80.7951 7.15353C81.8549 7.70037 82.6497 8.46121 83.1795 9.43561C83.7268 10.3926 84.0002 11.4778 84.0002 12.6916V14.3581H74.1803C74.3514 15.0416 74.7786 15.5375 75.4626 15.8449C76.1461 16.1527 77.0776 16.3064 78.2571 16.3064C79.0817 16.3046 79.9048 16.2361 80.7183 16.1013C81.573 15.9646 82.3079 15.7765 82.9231 15.5375V18.5116C82.2909 18.7681 81.4961 18.9731 80.5387 19.1268C79.5828 19.2993 78.6132 19.3851 77.6419 19.3833ZM79.7439 11.5376C79.6755 10.8711 79.4021 10.3497 78.9236 9.97396C78.4451 9.59778 77.7871 9.40969 76.9494 9.40969C76.1291 9.40969 75.4795 9.60627 75.0011 9.99942C74.5226 10.3756 74.2487 10.8885 74.1803 11.5376H79.7439Z" fill="white"/>
</svg>
