<svg width="51" height="51" viewBox="0 0 51 51" fill="none" xmlns="http://www.w3.org/2000/svg">
<path d="M0 12C0 5.37258 5.37258 0 12 0H39C45.6274 0 51 5.37258 51 12V39C51 45.6274 45.6274 51 39 51H12C5.37258 51 0 45.6274 0 39V12Z" fill="#D7D7D7"/>
<path fill-rule="evenodd" clip-rule="evenodd" d="M18.1477 29.3978C19.2026 28.3429 20.6334 27.7502 22.1252 27.7502H28.8753C30.3672 27.7502 31.798 28.3429 32.8529 29.3978C33.9078 30.4527 34.5005 31.8835 34.5005 33.3753V35.6254C34.5005 36.2467 33.9968 36.7504 33.3754 36.7504C32.7541 36.7504 32.2504 36.2467 32.2504 35.6254V33.3753C32.2504 32.4802 31.8948 31.6218 31.2619 30.9888C30.6289 30.3559 29.7705 30.0003 28.8753 30.0003H22.1252C21.2301 30.0003 20.3716 30.3559 19.7387 30.9888C19.1057 31.6218 18.7502 32.4802 18.7502 33.3753V35.6254C18.7502 36.2467 18.2465 36.7504 17.6251 36.7504C17.0038 36.7504 16.5001 36.2467 16.5001 35.6254V33.3753C16.5001 31.8835 17.0928 30.4527 18.1477 29.3978Z" fill="white"/>
<path fill-rule="evenodd" clip-rule="evenodd" d="M25.5003 16.5C23.6363 16.5 22.1252 18.0111 22.1252 19.8751C22.1252 21.7391 23.6363 23.2502 25.5003 23.2502C27.3643 23.2502 28.8753 21.7391 28.8753 19.8751C28.8753 18.0111 27.3643 16.5 25.5003 16.5ZM19.8752 19.8751C19.8752 16.7684 22.3936 14.25 25.5003 14.25C28.6069 14.25 31.1254 16.7684 31.1254 19.8751C31.1254 22.9818 28.6069 25.5002 25.5003 25.5002C22.3936 25.5002 19.8752 22.9818 19.8752 19.8751Z" fill="white"/>
</svg>
